<svg
xmlns="http://www.w3.org/2000/svg"
viewBox="0 0 110.4 106.37">
<defs><style>.cls-1{fill:#00aeef;}.cls-2{fill:#fff;}</style></defs>
<title>icons_B</title>
<path class="cls-1" d="M62.74,5.63l5.27,4a.92.92,0,0,0,.64.19l6.61-.55A12.39,12.39,0,0,1,88,17.46l2.24,6.24a1,1,0,0,0,.44.51l5.86,3.11A12.41,12.41,0,0,1,102.76,41l-1.49,6.47a.9.9,0,0,0,.1.66L104.61,54a12.37,12.37,0,0,1-2.14,14.92l-4.75,4.64a1,1,0,0,0-.28.61l-.39,6.62a12.4,12.4,0,0,1-9.88,11.4l-6.5,1.33a1,1,0,0,0-.56.37l-3.92,5.36a12.38,12.38,0,0,1-14.46,4.24l-6.19-2.39a1,1,0,0,0-.68,0l-6.18,2.39a12.39,12.39,0,0,1-14.47-4.24l-3.92-5.36a.91.91,0,0,0-.56-.37l-6.5-1.33a12.38,12.38,0,0,1-9.87-11.4L13,74.13a.89.89,0,0,0-.28-.61L7.93,68.88A12.37,12.37,0,0,1,5.79,54L9,48.17a1,1,0,0,0,.09-.66L7.65,41a12.39,12.39,0,0,1,6.26-13.72l5.86-3.11a1,1,0,0,0,.44-.51l2.24-6.24A12.39,12.39,0,0,1,35.14,9.31l6.61.55a1,1,0,0,0,.65-.19l5.26-4A12.39,12.39,0,0,1,62.74,5.63Z"/>
<path class="cls-2" d="M76.45,42.05h0a3.43,3.43,0,0,0-4.84,0L49.74,63.91,38.8,53A3.45,3.45,0,0,0,34,53h0a3.43,3.43,0,0,0,0,4.84L47.32,71.18a3.43,3.43,0,0,0,4.84,0L76.45,46.89A3.43,3.43,0,0,0,76.45,42.05Z"/>
</svg>