<svg id="Layer_1" data-name="Layer 1" xmlns="http://www.w3.org/2000/svg" x="0px" y="0px"
	 width="43px" height="39px" viewBox="0 0 110.4 106.37"><defs><style>.cls-1{opacity:0.6;}.cls-2{fill:#f4f2f2;}</style></defs><title>P symbol</title><g class="cls-1"><path class="cls-2" d="M26.87,10.92H21.82V2.41H41.4V22H32.89V17.17A42.79,42.79,0,0,0,55.5,96.29v8.51A51.31,51.31,0,0,1,26.87,10.92Z"/><path class="cls-2" d="M81.52,87.49a42.8,42.8,0,0,0-26-76.78V2.2A51.31,51.31,0,0,1,87.22,93.84h5.37v8.51H73V82.76h8.51Z"/></g><path class="cls-2" d="M55.5,81.92A28.71,28.71,0,1,1,84.2,53.2,28.7,28.7,0,0,1,55.5,81.92ZM28.7,53.2A26.8,26.8,0,1,0,55.5,26.41,26.78,26.78,0,0,0,28.7,53.2Zm16.18-7.83c0-2.66-.06-5.18-.19-7.6h3.46l.19,4.39h.12a9.87,9.87,0,0,1,9.07-4.94c6.36,0,10.68,5.25,10.68,11.79,0,8.27-5.31,12.59-11.29,12.59-3.34,0-6.49-1.29-8.15-4.07H48.7V70.68H44.88Zm3.82,6.24c0,4.31,3.83,7,7.54,7,5.06,0,8.21-3.71,8.21-9.45,0-4.81-3-8.82-8-8.82a7.62,7.62,0,0,0-7.78,7.21Z"/></svg>
