<?xml version="1.0" encoding="utf-8"?>
<!-- Generator: Adobe Illustrator 19.2.1, SVG Export Plug-In . SVG Version: 6.00 Build 0)  -->
<svg version="1.1" id="Capa_1" xmlns="http://www.w3.org/2000/svg" xmlns:xlink="http://www.w3.org/1999/xlink" x="0px" y="0px"
	 viewBox="0 0 473 512" style="enable-background:new 0 0 473 512;" xml:space="preserve">
<style type="text/css">
	.st0{display:none;}
	.st1{display:inline;fill:#037CFF;}
	.st2{fill:#037CFF;}
</style>
<g class="st0">
	<path class="st1" d="M302.9,317.8c48.5,0,88.1-14.8,118.7-44.4c30.7-29.6,46-67.8,46-114.5c0-46.8-15.3-85-46-114.5
		C391,14.8,351.4,0,302.9,0h-196c-3.4,0-6.2,1.1-8.4,3.3c-2.2,2.2-3.3,5-3.3,8.4v228.7H13.8c-3.4,0-6.2,1.1-8.4,3.4
		c-2.2,2.3-3.3,5-3.3,8.2v54.2c0,3.4,1.1,6.2,3.3,8.4c2.2,2.2,5,3.3,8.4,3.3h81.5v42.9H13.8c-3.4,0-6.2,1.1-8.4,3.3
		c-2.2,2.2-3.3,5-3.3,8.4v46.6c0,3.4,1.1,6.2,3.3,8.4c2.2,2.2,5,3.3,8.4,3.3h81.5v69.8c0,3.4,1.1,6.2,3.3,8.4c2.2,2.2,5,3.3,8.4,3.3
		h60.7c3.1,0,5.9-1.1,8.2-3.3c2.3-2.2,3.5-5,3.5-8.4v-69.8H363c3.4,0,6.2-1.1,8.4-3.3c2.2-2.2,3.3-5,3.3-8.4v-46.6
		c0-3.4-1.1-6.2-3.3-8.4c-2.2-2.2-5-3.3-8.4-3.3H179.3v-42.9L302.9,317.8L302.9,317.8z M179.3,77.4h116.4c25.7,0,46.4,7.5,62.2,22.5
		c15.8,15,23.6,34.7,23.6,58.9s-7.9,43.9-23.6,58.9c-15.8,15-36.5,22.6-62.2,22.6H179.3V77.4z"/>
</g>
<g>
	<g>
		<path class="st2" d="M434.8,381.4H38.2v-52L323.4,51.5c-33.5,1.7-62,2.5-85.6,2.5H54.7V1h366.2v42l-242.6,241
			c-4.8,5-17.2,16.7-37.1,35.1c-4.8,3.8-8,7.1-9.7,9.7c29-2.2,60.9-3.2,95.8-3.2h207.6V381.4z M371.4,513H108.2v-53.8h263.2V513z"/>
	</g>
</g>
</svg>
